<svg xmlns="http://www.w3.org/2000/svg" version="1.1" xmlns:xlink="http://www.w3.org/1999/xlink" xmlns:svgjs="http://svgjs.dev/svgjs" width="1000" height="1000" viewBox="0 0 1000 1000"><rect width="1000" height="1000" fill="#ffffff"></rect><g transform="matrix(0.7,0,0,0.7,149.57575757575756,282.1265587044535)"><svg viewBox="0 0 396 247" data-background-color="#ffffff" preserveAspectRatio="xMidYMid meet" height="623" width="1000" xmlns="http://www.w3.org/2000/svg" xmlns:xlink="http://www.w3.org/1999/xlink"><g id="tight-bounds" transform="matrix(1,0,0,1,0.2400000000000091,-0.09999999999999432)"><svg viewBox="0 0 395.52 247.2" height="247.2" width="395.52"><g><svg></svg></g><g><svg viewBox="0 0 395.52 247.2" height="247.2" width="395.52"><g transform="matrix(1,0,0,1,75.54432,108.612049863923)"><svg viewBox="0 0 244.43135999999998 29.975900272153993" height="29.975900272153993" width="244.43135999999998"><g><svg viewBox="0 0 244.43135999999998 29.975900272153993" height="29.975900272153993" width="244.43135999999998"><g><svg viewBox="0 0 244.43135999999998 29.975900272153993" height="29.975900272153993" width="244.43135999999998"><g><svg viewBox="0 0 244.43135999999998 29.975900272153993" height="29.975900272153993" width="244.43135999999998"><g id="textblocktransform"><svg viewBox="0 0 244.43135999999998 29.975900272153993" height="29.975900272153993" width="244.43135999999998" id="textblock"><g><svg viewBox="0 0 244.43135999999998 29.975900272153993" height="29.975900272153993" width="244.43135999999998"><g transform="matrix(1,0,0,1,0,0)"><svg width="244.43135999999998" viewBox="4.480000019073486 -36.54999923706055 301.2699890136719 36.95000076293945" height="29.975900272153993" data-palette-color="#202046"><path d="M11.23-36.15L11.23 0 4.48 0 4.48-36.15 11.23-36.15ZM22.87-36.15L22.87-36.15Q23.32-36.15 23.62-36.11 23.92-36.08 24.16-35.96 24.4-35.85 24.62-35.64 24.85-35.43 25.12-35.08L25.12-35.08 44.1-10.9Q44-11.78 43.96-12.61 43.92-13.45 43.92-14.18L43.92-14.18 43.92-36.15 49.85-36.15 49.85 0 46.37 0Q45.57 0 45.05-0.25 44.52-0.5 44.02-1.15L44.02-1.15 25.12-25.23Q25.2-24.43 25.23-23.64 25.27-22.85 25.27-22.2L25.27-22.2 25.27 0 19.35 0 19.35-36.15 22.87-36.15ZM63.74-36.15L92.27-36.15 92.27-30.63 81.39-30.63 81.39 0 74.67 0 74.67-30.63 63.74-30.63 63.74-36.15ZM129.27-18.07L129.27-18.07Q129.27-14.1 127.94-10.71 126.62-7.33 124.22-4.85 121.82-2.38 118.44-0.99 115.07 0.4 110.97 0.4L110.97 0.4Q106.87 0.4 103.48-0.99 100.09-2.38 97.68-4.85 95.27-7.33 93.94-10.71 92.62-14.1 92.62-18.07L92.62-18.07Q92.62-22.05 93.94-25.44 95.27-28.83 97.68-31.3 100.09-33.77 103.48-35.16 106.87-36.55 110.97-36.55L110.97-36.55Q115.07-36.55 118.44-35.15 121.82-33.75 124.22-31.29 126.62-28.83 127.94-25.44 129.27-22.05 129.27-18.07ZM122.37-18.07L122.37-18.07Q122.37-21.05 121.58-23.41 120.79-25.78 119.32-27.43 117.84-29.08 115.73-29.95 113.62-30.83 110.97-30.83L110.97-30.83Q108.32-30.83 106.19-29.95 104.07-29.08 102.58-27.43 101.09-25.78 100.29-23.41 99.49-21.05 99.49-18.07L99.49-18.07Q99.49-15.1 100.29-12.74 101.09-10.38 102.58-8.74 104.07-7.1 106.19-6.23 108.32-5.35 110.97-5.35L110.97-5.35Q113.62-5.35 115.73-6.23 117.84-7.1 119.32-8.74 120.79-10.38 121.58-12.74 122.37-15.1 122.37-18.07ZM166.66-18.07L166.66-18.07Q166.66-14.1 165.34-10.78 164.01-7.45 161.61-5.05 159.21-2.65 155.84-1.33 152.46 0 148.36 0L148.36 0 134.56 0 134.56-36.15 148.36-36.15Q152.46-36.15 155.84-34.81 159.21-33.48 161.61-31.09 164.01-28.7 165.34-25.38 166.66-22.05 166.66-18.07ZM159.79-18.07L159.79-18.07Q159.79-21.05 158.99-23.41 158.19-25.78 156.71-27.41 155.24-29.05 153.13-29.93 151.01-30.8 148.36-30.8L148.36-30.8 141.34-30.8 141.34-5.35 148.36-5.35Q151.01-5.35 153.13-6.23 155.24-7.1 156.71-8.74 158.19-10.38 158.99-12.74 159.79-15.1 159.79-18.07ZM206.61-18.07L206.61-18.07Q206.61-14.1 205.29-10.71 203.96-7.33 201.56-4.85 199.16-2.38 195.79-0.99 192.41 0.4 188.31 0.4L188.31 0.4Q184.21 0.4 180.82-0.99 177.44-2.38 175.02-4.85 172.61-7.33 171.29-10.71 169.96-14.1 169.96-18.07L169.96-18.07Q169.96-22.05 171.29-25.44 172.61-28.83 175.02-31.3 177.44-33.77 180.82-35.16 184.21-36.55 188.31-36.55L188.31-36.55Q192.41-36.55 195.79-35.15 199.16-33.75 201.56-31.29 203.96-28.83 205.29-25.44 206.61-22.05 206.61-18.07ZM199.71-18.07L199.71-18.07Q199.71-21.05 198.92-23.41 198.14-25.78 196.66-27.43 195.19-29.08 193.07-29.95 190.96-30.83 188.31-30.83L188.31-30.83Q185.66-30.83 183.54-29.95 181.41-29.08 179.92-27.43 178.44-25.78 177.64-23.41 176.84-21.05 176.84-18.07L176.84-18.07Q176.84-15.1 177.64-12.74 178.44-10.38 179.92-8.74 181.41-7.1 183.54-6.23 185.66-5.35 188.31-5.35L188.31-5.35Q190.96-5.35 193.07-6.23 195.19-7.1 196.66-8.74 198.14-10.38 198.92-12.74 199.71-15.1 199.71-18.07ZM218.63-36.15L218.63-5.55 233.11-5.55 233.11 0 211.91 0 211.91-36.15 218.63-36.15ZM245.33-36.15L245.33 0 238.58 0 238.58-36.15 245.33-36.15ZM274.48-32.75L272.83-29.58Q272.55-29.03 272.19-28.8 271.83-28.58 271.33-28.58L271.33-28.58Q270.83-28.58 270.2-28.96 269.58-29.35 268.73-29.83 267.88-30.3 266.74-30.69 265.6-31.08 264.05-31.08L264.05-31.08Q262.65-31.08 261.62-30.74 260.58-30.4 259.87-29.8 259.15-29.2 258.8-28.36 258.45-27.53 258.45-26.53L258.45-26.53Q258.45-25.25 259.17-24.4 259.88-23.55 261.05-22.95 262.23-22.35 263.73-21.88 265.23-21.4 266.79-20.86 268.35-20.33 269.85-19.61 271.35-18.9 272.53-17.81 273.7-16.73 274.42-15.15 275.13-13.58 275.13-11.33L275.13-11.33Q275.13-8.88 274.29-6.74 273.45-4.6 271.84-3.01 270.23-1.43 267.9-0.51 265.58 0.4 262.58 0.4L262.58 0.4Q260.85 0.4 259.18 0.06 257.5-0.28 255.97-0.9 254.43-1.53 253.09-2.4 251.75-3.28 250.7-4.35L250.7-4.35 252.65-7.58Q252.93-7.93 253.31-8.16 253.7-8.4 254.18-8.4L254.18-8.4Q254.8-8.4 255.53-7.89 256.25-7.38 257.24-6.75 258.23-6.13 259.56-5.61 260.9-5.1 262.78-5.1L262.78-5.1Q265.65-5.1 267.23-6.46 268.8-7.83 268.8-10.38L268.8-10.38Q268.8-11.8 268.09-12.7 267.38-13.6 266.2-14.21 265.03-14.83 263.53-15.25 262.03-15.68 260.48-16.18 258.93-16.68 257.43-17.38 255.93-18.07 254.75-19.2 253.58-20.33 252.87-22.01 252.15-23.7 252.15-26.18L252.15-26.18Q252.15-28.15 252.94-30.03 253.73-31.9 255.24-33.35 256.75-34.8 258.95-35.68 261.15-36.55 263.98-36.55L263.98-36.55Q267.18-36.55 269.88-35.55 272.58-34.55 274.48-32.75L274.48-32.75ZM277.23-36.15L305.75-36.15 305.75-30.63 294.88-30.63 294.88 0 288.15 0 288.15-30.63 277.23-30.63 277.23-36.15Z" opacity="1" transform="matrix(1,0,0,1,0,0)" fill="#202046" class="undefined-text-0" data-fill-palette-color="primary" id="text-0"></path></svg></g></svg></g></svg></g></svg></g></svg></g></svg></g></svg></g><path d="M219.787 102.612L219.787 38.474 390.038 38.474 390.038 208.726 219.787 208.726 219.787 144.588 222.49 144.588 222.49 206.022 387.335 206.022 387.335 41.178 222.49 41.178 222.49 102.612Z" fill="#202046" stroke="transparent" data-fill-palette-color="primary"></path></svg></g><defs></defs></svg><rect width="395.52" height="247.2" fill="none" stroke="none" visibility="hidden"></rect></g></svg></g></svg>